<?xml version="1.0" encoding="UTF-8" standalone="no"?>
<!-- Created with Inkscape (http://www.inkscape.org/) -->

<svg
   width="36.171501mm"
   height="36.171501mm"
   viewBox="0 0 36.171501 36.171501"
   version="1.1"
   id="svg5"
   inkscape:version="1.1.2 (0a00cf5339, 2022-02-04)"
   sodipodi:docname="icon.svg"
   inkscape:export-filename="/home/ivo/burggraben/informatik/ffprog/23-ffprog2/einmaleins/icon144.png"
   inkscape:export-xdpi="101.11829"
   inkscape:export-ydpi="101.11829"
   xmlns:inkscape="http://www.inkscape.org/namespaces/inkscape"
   xmlns:sodipodi="http://sodipodi.sourceforge.net/DTD/sodipodi-0.dtd"
   xmlns="http://www.w3.org/2000/svg"
   xmlns:svg="http://www.w3.org/2000/svg">
  <sodipodi:namedview
     id="namedview7"
     pagecolor="#ffffff"
     bordercolor="#666666"
     borderopacity="1.0"
     inkscape:pageshadow="2"
     inkscape:pageopacity="0.0"
     inkscape:pagecheckerboard="0"
     inkscape:document-units="mm"
     showgrid="false"
     fit-margin-top="0"
     fit-margin-left="0"
     fit-margin-right="0"
     fit-margin-bottom="0"
     inkscape:zoom="4.1373683"
     inkscape:cx="92.087523"
     inkscape:cy="84.594837"
     inkscape:window-width="1920"
     inkscape:window-height="1007"
     inkscape:window-x="0"
     inkscape:window-y="0"
     inkscape:window-maximized="1"
     inkscape:current-layer="layer1" />
  <defs
     id="defs2">
    <filter
       style="color-interpolation-filters:sRGB"
       inkscape:label="Drop Shadow"
       id="filter26836"
       x="-0.017354164"
       y="-0.023309555"
       width="1.0438773"
       height="1.0738157">
      <feFlood
         flood-opacity="0.513726"
         flood-color="rgb(0,0,0)"
         result="flood"
         id="feFlood26826" />
      <feComposite
         in="flood"
         in2="SourceGraphic"
         operator="in"
         result="composite1"
         id="feComposite26828" />
      <feGaussianBlur
         in="composite1"
         stdDeviation="0.21052574043843283"
         result="blur"
         id="feGaussianBlur26830" />
      <feOffset
         dx="0.26695201381289735"
         dy="0.58951680456782185"
         result="offset"
         id="feOffset26832" />
      <feComposite
         in="SourceGraphic"
         in2="offset"
         operator="over"
         result="composite2"
         id="feComposite26834" />
    </filter>
    <filter
       style="color-interpolation-filters:sRGB"
       inkscape:label="Drop Shadow"
       id="filter26836-3"
       x="-0.017354164"
       y="-0.023309555"
       width="1.0438773"
       height="1.0738157">
      <feFlood
         flood-opacity="0.513726"
         flood-color="rgb(0,0,0)"
         result="flood"
         id="feFlood26826-6" />
      <feComposite
         in="flood"
         in2="SourceGraphic"
         operator="in"
         result="composite1"
         id="feComposite26828-7" />
      <feGaussianBlur
         in="composite1"
         stdDeviation="0.21052574043843283"
         result="blur"
         id="feGaussianBlur26830-5" />
      <feOffset
         dx="0.26695201381289735"
         dy="0.58951680456782185"
         result="offset"
         id="feOffset26832-3" />
      <feComposite
         in="SourceGraphic"
         in2="offset"
         operator="over"
         result="composite2"
         id="feComposite26834-5" />
    </filter>
  </defs>
  <g
     inkscape:label="Layer 1"
     inkscape:groupmode="layer"
     id="layer1"
     transform="translate(-30.801636,-66.295475)">
    <ellipse
       style="fill:#4377c2;fill-opacity:1;fill-rule:evenodd;stroke-width:0.264583;stroke-linecap:round;stroke-dasharray:0.264583, 0.79375"
       id="path26626"
       cx="48.887386"
       cy="84.381226"
       rx="18.086"
       ry="18.085751"
       inkscape:export-filename="/home/ivo/burggraben/informatik/ffprog/23-ffprog2/einmaleins/icon512.png"
       inkscape:export-xdpi="359.53"
       inkscape:export-ydpi="359.53" />
    <g
       id="g21057"
       transform="matrix(1.0348033,0,0,1.1411392,-2.0879722,-11.26143)">
      <path
         id="path12973"
         style="font-size:8.46667px;line-height:0.9;font-family:'Helvetica Rounded';-inkscape-font-specification:'Helvetica Rounded';letter-spacing:0.264583px;fill:#be7fff;fill-opacity:1;stroke-width:0.264583;filter:url(#filter26836)"
         transform="matrix(1.0787163,0,0,1.0787163,-3.059236,-3.3421828)"
         d="m 58.729283,87.952426 c 0,0.829734 0.5588,1.126067 1.278467,1.303867 l 0.728133,0.1778 c 0.440267,0.110067 0.711201,0.160867 0.711201,0.474134 0,0.254 -0.279401,0.448733 -0.719667,0.448733 -0.914401,0 -0.965201,-0.762 -1.498601,-0.762 -0.347133,0 -0.499533,0.245533 -0.499533,0.516467 0,0.6096 0.931333,1.109134 2.048934,1.109134 0.931333,0 1.905,-0.465667 1.905,-1.473201 0,-0.8636 -0.8382,-1.159934 -1.540934,-1.3208 l -0.516466,-0.118534 c -0.381001,-0.08467 -0.660401,-0.1524 -0.660401,-0.440267 0,-0.262466 0.2794,-0.381 0.711201,-0.381 0.778933,0 0.795867,0.567267 1.278467,0.567267 0.321733,0 0.516467,-0.254 0.516467,-0.541867 0,-0.567267 -0.948267,-0.9398 -1.888068,-0.9398 -0.855133,0 -1.8542,0.372533 -1.8542,1.380067 z m -5.242969,2.650068 c 0,0.3302 0.135466,0.618067 0.618067,0.618067 0.4826,0 0.618067,-0.287867 0.618067,-0.618067 v -2.040468 c 0,-0.618067 0.508,-0.973667 0.9398,-0.973667 0.5334,0 0.778934,0.3556 0.778934,0.855134 v 2.159001 c 0,0.3302 0.135466,0.618067 0.618067,0.618067 0.4826,0 0.618066,-0.287867 0.618066,-0.618067 v -2.404535 c 0,-1.253067 -0.8128,-1.6256 -1.557867,-1.6256 -0.702733,0 -1.151467,0.321733 -1.4986,0.778933 h -0.01693 v -0.160866 c 0,-0.372534 -0.169333,-0.618067 -0.5588,-0.618067 -0.389467,0 -0.5588,0.245533 -0.5588,0.618067 z m -2.550584,0 c 0,0.3302 0.135467,0.618067 0.618067,0.618067 0.482601,0 0.618067,-0.287867 0.618067,-0.618067 v -3.412068 c 0,-0.3302 -0.135466,-0.618067 -0.618067,-0.618067 -0.4826,0 -0.618067,0.287867 -0.618067,0.618067 z m -0.0254,-5.088469 c 0,0.3556 0.287867,0.643467 0.643467,0.643467 0.355601,0 0.643467,-0.287867 0.643467,-0.643467 0,-0.3556 -0.287866,-0.643467 -0.643467,-0.643467 -0.3556,0 -0.643467,0.287867 -0.643467,0.643467 z m -5.920313,4.783669 c 0,0.618067 0.321733,0.8128 0.8128,0.8128 h 3.327401 c 0.406401,0 0.702734,-0.118533 0.702734,-0.5588 0,-0.440267 -0.296333,-0.558801 -0.702734,-0.558801 h -2.751667 v -1.4732 h 2.353734 c 0.364067,0 0.651933,-0.1016 0.651933,-0.5334 0,-0.4318 -0.287866,-0.533401 -0.651933,-0.533401 h -2.353734 v -1.3208 h 2.683934 c 0.4064,0 0.702734,-0.118533 0.702734,-0.5588 0,-0.440267 -0.296334,-0.558801 -0.702734,-0.558801 h -3.259668 c -0.491067,0 -0.8128,0.194734 -0.8128,0.812801 z m 7.713112,-7.358281 c 0,0.4064 0.245534,0.618067 0.618067,0.618067 0.372534,0 0.618067,-0.211667 0.618067,-0.618067 v -5.080002 c 0,-0.4064 -0.245533,-0.618067 -0.618067,-0.618067 -0.372533,0 -0.618067,0.211667 -0.618067,0.618067 z M 51.30403,80.179278 c 0,-0.889 -0.821267,-1.27 -2.006601,-1.27 -1.270001,0 -1.964268,0.626534 -1.964268,1.1176 0,0.254001 0.211667,0.474134 0.524934,0.474134 0.491067,0 0.516467,-0.677334 1.430867,-0.677334 0.414867,0 0.778934,0.1524 0.778934,0.508001 0,0.3556 -0.237067,0.423333 -0.5334,0.4572 l -0.753534,0.08467 c -0.948267,0.110067 -1.727201,0.397934 -1.727201,1.422401 0,0.778934 0.694267,1.261534 1.397001,1.261534 0.651933,0 1.210734,-0.186267 1.693334,-0.719667 0.01693,0.381 0.194733,0.719667 0.728134,0.719667 0.296333,0 0.5588,-0.194734 0.5588,-0.474134 0,-0.194733 -0.127,-0.313267 -0.127,-0.829733 z m -1.236134,1.667934 c 0,0.457201 -0.414867,0.897467 -1.092201,0.897467 -0.423333,0 -0.6858,-0.2286 -0.6858,-0.508 0,-0.372533 0.2794,-0.5334 0.795867,-0.6096 l 0.448734,-0.06773 c 0.143933,-0.0254 0.397933,-0.06773 0.5334,-0.194734 z m -10.97491,1.092201 c 0,0.3302 0.135467,0.618067 0.618067,0.618067 0.4826,0 0.618067,-0.287867 0.618067,-0.618067 v -2.057401 c 0,-0.575733 0.423333,-0.956734 0.897467,-0.956734 0.4826,0 0.677333,0.355601 0.677333,0.795867 v 2.218268 c 0,0.3302 0.135467,0.618067 0.618067,0.618067 0.482601,0 0.618067,-0.287867 0.618067,-0.618067 v -2.057401 c 0,-0.575733 0.423334,-0.956734 0.897467,-0.956734 0.482601,0 0.677334,0.355601 0.677334,0.795867 v 2.218268 c 0,0.3302 0.135467,0.618067 0.618067,0.618067 0.4826,0 0.618067,-0.287867 0.618067,-0.618067 v -2.531534 c 0,-1.109134 -0.685801,-1.498601 -1.540934,-1.498601 -0.668867,0 -1.109134,0.296333 -1.456267,0.778934 -0.228601,-0.584201 -0.762001,-0.778934 -1.185334,-0.778934 -0.626534,0 -1.168401,0.287867 -1.490134,0.778934 h -0.01693 v -0.160867 c 0,-0.372534 -0.220134,-0.618067 -0.584201,-0.618067 -0.364067,0 -0.5842,0.245533 -0.5842,0.618067 z m 2.9718,-7.663081 c 0,0.3302 0.135467,0.618067 0.618067,0.618067 0.4826,0 0.618067,-0.287867 0.618067,-0.618067 v -2.040467 c 0,-0.618067 0.508,-0.973667 0.9398,-0.973667 0.5334,0 0.778934,0.3556 0.778934,0.855133 v 2.159001 c 0,0.3302 0.135466,0.618067 0.618067,0.618067 0.4826,0 0.618067,-0.287867 0.618067,-0.618067 v -2.404534 c 0,-1.253067 -0.812801,-1.625601 -1.557868,-1.625601 -0.702733,0 -1.151467,0.321734 -1.4986,0.778934 h -0.01693 v -0.160867 c 0,-0.372533 -0.169333,-0.618067 -0.5588,-0.618067 -0.389467,0 -0.5588,0.245534 -0.5588,0.618067 z m -2.550583,0 c 0,0.3302 0.135467,0.618067 0.618067,0.618067 0.4826,0 0.618067,-0.287867 0.618067,-0.618067 v -3.412068 c 0,-0.3302 -0.135467,-0.618067 -0.618067,-0.618067 -0.4826,0 -0.618067,0.287867 -0.618067,0.618067 z m -0.0254,-5.088469 c 0,0.355601 0.287867,0.643467 0.643467,0.643467 0.3556,0 0.643467,-0.287866 0.643467,-0.643467 0,-0.3556 -0.287867,-0.643467 -0.643467,-0.643467 -0.3556,0 -0.643467,0.287867 -0.643467,0.643467 z m -5.920314,4.783669 c 0,0.618067 0.321733,0.8128 0.8128,0.8128 h 3.327401 c 0.406401,0 0.702734,-0.118533 0.702734,-0.5588 0,-0.440267 -0.296333,-0.5588 -0.702734,-0.5588 h -2.751667 v -1.473201 h 2.353734 c 0.364067,0 0.651934,-0.1016 0.651934,-0.5334 0,-0.4318 -0.287867,-0.5334 -0.651934,-0.5334 H 34.957023 V 70.80593 h 2.683934 c 0.4064,0 0.702734,-0.118533 0.702734,-0.5588 0,-0.440267 -0.296334,-0.5588 -0.702734,-0.5588 h -3.259668 c -0.491067,0 -0.8128,0.194733 -0.8128,0.8128 z" />
      <path
         id="path15422"
         style="font-size:8.46667px;line-height:0.9;font-family:'Helvetica Rounded';-inkscape-font-specification:'Helvetica Rounded';letter-spacing:0.264583px;fill:#e5c4ff;fill-opacity:1;stroke-width:0.285409"
         d="m 40.23626,71.672432 c -0.383592,0 -0.694532,0.310422 -0.694532,0.694012 0,0.246221 0.128354,0.461764 0.321428,0.584978 -0.08765,-0.1162 -0.14056,-0.260646 -0.14056,-0.417544 0,-0.38359 0.310939,-0.694015 0.694531,-0.694015 0.137404,0 0.264847,0.04078 0.372587,0.109553 -0.126637,-0.167997 -0.326679,-0.276984 -0.553454,-0.276984 z m -6.203756,0.155027 c -0.529722,0 -0.876949,0.21023 -0.876949,0.876951 v 4.822444 c 0,0.394165 0.122091,0.627538 0.330729,0.753443 -0.09604,-0.135766 -0.149862,-0.325684 -0.149862,-0.586012 v -4.822444 c 0,-0.666721 0.347227,-0.876433 0.876949,-0.876433 h 3.516065 c 0.194151,0 0.364937,0.02485 0.49506,0.09405 -0.121983,-0.199107 -0.36995,-0.262001 -0.675928,-0.262001 z m 6.203756,1.680519 c -0.520589,0 -0.667143,0.310436 -0.667143,0.666626 v 3.680912 c 0,0.245415 0.06976,0.46903 0.283187,0.58446 -0.07413,-0.115869 -0.102319,-0.262059 -0.102319,-0.417029 v -3.680396 c 0,-0.35619 0.146553,-0.666626 0.667142,-0.666626 0.162131,0 0.287568,0.02993 0.383956,0.08217 -0.09617,-0.150781 -0.270345,-0.250114 -0.564823,-0.250114 z m 2.687174,0 c -0.420124,0 -0.602547,0.264774 -0.602547,0.666626 v 3.680912 c 0,0.245415 0.06925,0.46903 0.28267,0.58446 -0.07413,-0.115869 -0.101803,-0.262059 -0.101803,-0.417029 v -3.680396 c 0,-0.401849 0.182424,-0.666626 0.602548,-0.666626 0.127079,0 0.23215,0.02432 0.317293,0.06925 -0.09514,-0.149683 -0.257589,-0.237194 -0.498161,-0.237194 z m 2.237589,0 c -0.661303,0 -1.114202,0.264023 -1.46761,0.658874 0.0089,0.05509 0.01395,0.113591 0.01395,0.175699 v 0.173633 h 0.01809 c 0.374458,-0.493189 0.858389,-0.840259 1.616439,-0.840259 0.38344,0 0.782499,0.09294 1.096057,0.335381 -0.329864,-0.369324 -0.815106,-0.503328 -1.276925,-0.503328 z M 34.834522,74.45779 v 0.16795 h 2.538863 c 0.170388,0 0.325173,0.02025 0.445968,0.08165 -0.115374,-0.194527 -0.350444,-0.249598 -0.626835,-0.249598 z m 10.493933,0.438732 c 0.120633,0.160756 0.179834,0.377823 0.179834,0.629936 v 2.329058 c 0,0.245415 0.06925,0.46903 0.28267,0.58446 -0.07413,-0.115869 -0.101802,-0.262059 -0.101802,-0.417029 v -2.328539 c 0,-0.355722 -0.116721,-0.643173 -0.360702,-0.797886 z m -10.493933,2.301153 v 0.167947 H 37.8023 c 0.194151,0 0.364937,0.02485 0.49506,0.09405 -0.121983,-0.199104 -0.36995,-0.261998 -0.675928,-0.261998 z m 19.628776,2.777609 c -0.401857,0 -0.666626,0.228235 -0.666626,0.666626 v 5.479766 c 0,0.279414 0.107823,0.47321 0.289905,0.577229 -0.07023,-0.105159 -0.109037,-0.241745 -0.109037,-0.409279 v -5.480285 c 0,-0.438391 0.264769,-0.666626 0.666626,-0.666626 0.14573,0 0.273121,0.03073 0.376721,0.08992 -0.113534,-0.170032 -0.309288,-0.257347 -0.557589,-0.257347 z m -14.717965,1.799373 c -0.392724,0 -0.630452,0.264774 -0.630452,0.666626 v 3.680393 c 0,0.244883 0.0693,0.468297 0.281637,0.583946 -0.07355,-0.115681 -0.100769,-0.261559 -0.100769,-0.415996 v -3.680912 c 0,-0.40185 0.237727,-0.666626 0.630452,-0.666626 0.129621,0 0.241509,0.02958 0.334347,0.08268 -0.106772,-0.157803 -0.283771,-0.250113 -0.515215,-0.250113 z m 2.255677,0 c -0.590045,0 -1.110413,0.236469 -1.463993,0.649055 0.0123,0.05775 0.01912,0.119388 0.01912,0.185002 v 0.173632 h 0.01809 c 0.347059,-0.529719 0.931801,-0.840258 1.607653,-0.840258 0.276882,0 0.59702,0.0783 0.861446,0.279569 -0.287428,-0.327837 -0.69848,-0.447 -1.042313,-0.447 z m 2.849438,0 c -0.685694,0 -1.147396,0.290859 -1.513086,0.76636 0.04659,0.07274 0.08822,0.152474 0.12299,0.241329 0.374458,-0.520588 0.849446,-0.840258 1.570964,-0.840258 0.434698,0 0.827661,0.09497 1.122929,0.318844 -0.303687,-0.346048 -0.773022,-0.486275 -1.303797,-0.486275 z m 5.27203,0 c -1.369971,0 -2.118734,0.675373 -2.118734,1.205092 0,0.179954 0.09917,0.343607 0.262516,0.435118 -0.05183,-0.07886 -0.08165,-0.170299 -0.08165,-0.267168 0,-0.52972 0.748762,-1.205611 2.118733,-1.205611 0.722037,0 1.31842,0.131284 1.701188,0.418063 -0.358155,-0.403051 -1.032502,-0.585494 -1.882055,-0.585494 z m 0.76171,1.285708 c 0.0443,0.06961 0.06976,0.152104 0.06976,0.248566 0,0.383587 -0.256017,0.456462 -0.575676,0.492993 l -0.81287,0.09147 c -1.022911,0.118729 -1.862936,0.429162 -1.862936,1.534274 0,0.439359 0.205762,0.789942 0.50953,1.025776 -0.201226,-0.223292 -0.328662,-0.513424 -0.328662,-0.858345 0,-1.105109 0.840024,-1.415542 1.862935,-1.534274 l 0.812871,-0.09147 c 0.319659,-0.03653 0.575675,-0.109403 0.575675,-0.492993 0,-0.190857 -0.09781,-0.326917 -0.250631,-0.415997 z m -5.865275,0.07493 c 0.110538,0.154078 0.160197,0.363173 0.160197,0.593765 v 2.392616 c 0,0.245261 0.06956,0.468969 0.28267,0.584462 -0.07384,-0.115776 -0.101802,-0.261807 -0.101802,-0.416512 v -2.393135 c 0,-0.331407 -0.102362,-0.618038 -0.341065,-0.761196 z m -3.031856,5.19e-4 c 0.110337,0.154038 0.160197,0.362852 0.160197,0.593246 v 2.392616 c 0,0.245261 0.06905,0.468969 0.282153,0.584462 -0.07384,-0.115776 -0.101285,-0.261807 -0.101285,-0.416512 v -2.393135 c 0,-0.331158 -0.102743,-0.617416 -0.341065,-0.760677 z m 9.147762,1.45469 c -0.04881,0.04575 -0.112708,0.08042 -0.180867,0.108521 v 0.24443 c 0,0.493189 -0.447572,0.968417 -1.178223,0.968417 -0.193508,0 -0.355674,-0.04489 -0.478524,-0.118856 0.114577,0.170135 0.346166,0.286287 0.659391,0.286287 0.730651,0 1.178223,-0.47471 1.178223,-0.967898 z m 0.08217,1.58905 c -0.0425,0.04697 -0.08611,0.09074 -0.129708,0.13281 0.04957,0.150866 0.138565,0.27976 0.279569,0.365353 -0.09779,-0.137367 -0.141639,-0.313082 -0.149861,-0.498163 z m 1.339453,2.0252 c -0.383591,0 -0.694015,0.310941 -0.694015,0.694531 0,0.246037 0.128078,0.461201 0.320911,0.584462 -0.08751,-0.116149 -0.140043,-0.26027 -0.140043,-0.417031 0,-0.38359 0.310423,-0.694012 0.694014,-0.694012 0.137378,0 0.265377,0.04029 0.373104,0.109037 -0.126649,-0.167894 -0.32728,-0.276987 -0.553975,-0.276987 z M 46.352686,88.3603 c -0.529722,0 -0.876432,0.21023 -0.876432,0.876948 v 4.821928 c 0,0.393989 0.121744,0.628018 0.330212,0.75396 -0.09616,-0.135782 -0.149345,-0.325509 -0.149345,-0.58601 v -4.822444 c 0,-0.666721 0.347227,-0.876951 0.876949,-0.876951 h 3.516061 c 0.19397,0 0.364466,0.02552 0.494543,0.09457 C 50.422698,88.423173 50.175256,88.3603 49.869263,88.3603 Z m 6.203756,1.680517 c -0.520588,0 -0.666626,0.310438 -0.666626,0.666628 v 3.680394 c 0,0.245261 0.06956,0.468969 0.28267,0.584462 -0.07384,-0.115776 -0.101803,-0.261808 -0.101803,-0.416512 v -3.680913 c 0,-0.35619 0.146038,-0.666625 0.666626,-0.666625 0.162132,0 0.288085,0.03045 0.384473,0.08268 -0.09617,-0.150781 -0.270861,-0.250116 -0.56534,-0.250116 z m 2.687691,0 c -0.420125,0 -0.603064,0.264777 -0.603064,0.666628 v 3.680394 c 0,0.245261 0.06956,0.468969 0.28267,0.584462 -0.07384,-0.115776 -0.101802,-0.261808 -0.101802,-0.416512 v -3.680913 c 0,-0.401852 0.182938,-0.666625 0.603063,-0.666625 0.127095,0 0.232145,0.02482 0.317294,0.06976 C 55.647204,90.12799 55.485,90.040815 55.244133,90.040815 Z m 2.23759,0 c -0.661468,0 -1.114164,0.26438 -1.467611,0.659392 0.0089,0.05494 0.01344,0.11276 0.01344,0.174667 v 0.173633 h 0.0186 c 0.374458,-0.493191 0.85839,-0.840258 1.616439,-0.840258 0.383121,0 0.781583,0.0934 1.095023,0.335378 -0.329854,-0.36888 -0.814316,-0.502812 -1.27589,-0.502812 z m 4.815209,0 c -0.922446,0 -1.999878,0.40195 -1.999878,1.4888 0,0.488201 0.180204,0.804222 0.469222,1.022675 -0.180928,-0.206092 -0.288354,-0.47925 -0.288354,-0.855244 0,-1.08685 1.077432,-1.488797 1.999878,-1.488797 0.657294,0 1.316985,0.169685 1.700671,0.455268 -0.322755,-0.386138 -1.104125,-0.622702 -1.881539,-0.622702 z m -15.142228,0.949814 v 0.167431 h 2.53938 c 0.170387,0 0.325173,0.02077 0.445968,0.08217 -0.115352,-0.194609 -0.350397,-0.249598 -0.626835,-0.249598 z m 10.494967,0.438733 c 0.120425,0.160715 0.1788,0.378034 0.1788,0.629935 v 2.32854 c 0,0.245261 0.06956,0.468969 0.28267,0.584462 -0.07384,-0.115776 -0.101802,-0.261808 -0.101802,-0.416512 V 92.22673 c 0,-0.355541 -0.115939,-0.642598 -0.359668,-0.797366 z m 4.195609,0.33383 c 0.08939,0.182176 0.348506,0.243983 0.678512,0.317293 l 0.557072,0.128156 c 0.411142,0.09412 0.864182,0.231873 1.193725,0.486276 -0.327608,-0.365149 -0.881226,-0.541282 -1.374593,-0.654222 l -0.557072,-0.127641 c -0.199163,-0.04424 -0.37178,-0.08508 -0.497644,-0.149862 z m -1.00924,1.53789 c -0.374458,0 -0.538986,0.264811 -0.538986,0.557073 0,0.253044 0.14979,0.488185 0.401526,0.682127 -0.139763,-0.156228 -0.220658,-0.330142 -0.220658,-0.514181 0,-0.292258 0.164527,-0.557069 0.538985,-0.557069 0.149135,0 0.262945,0.05564 0.36742,0.137459 -0.161955,-0.164166 -0.311137,-0.305409 -0.548287,-0.305409 z m 2.355411,0.16278 c 0.02391,0.04866 0.03721,0.105473 0.03721,0.175183 0,0.273992 -0.301258,0.484209 -0.77618,0.484209 -0.39143,0 -0.635466,-0.129617 -0.824239,-0.285771 0.216855,0.218884 0.477174,0.453202 1.005107,0.453202 0.474922,0 0.77618,-0.209701 0.77618,-0.48369 0,-0.173681 -0.07855,-0.271913 -0.218075,-0.343133 z m -16.036747,0.266652 v 0.167431 h 2.968295 c 0.194151,0 0.364937,0.02537 0.49506,0.09457 -0.121969,-0.199155 -0.369917,-0.261999 -0.675928,-0.261999 z" />
    </g>
  </g>
</svg>
