<?xml version="1.0" encoding="UTF-8" standalone="no"?>
<!-- Created with Inkscape (http://www.inkscape.org/) -->

<svg
   width="16.933331mm"
   height="17.599249mm"
   viewBox="0 0 16.93333 17.599248"
   version="1.1"
   id="svg5"
   inkscape:version="1.1.2 (0a00cf5339, 2022-02-04)"
   sodipodi:docname="teilen.svg"
   xmlns:inkscape="http://www.inkscape.org/namespaces/inkscape"
   xmlns:sodipodi="http://sodipodi.sourceforge.net/DTD/sodipodi-0.dtd"
   xmlns="http://www.w3.org/2000/svg"
   xmlns:svg="http://www.w3.org/2000/svg">
  <sodipodi:namedview
     id="namedview7"
     pagecolor="#ffffff"
     bordercolor="#666666"
     borderopacity="1.0"
     inkscape:pageshadow="2"
     inkscape:pageopacity="0.0"
     inkscape:pagecheckerboard="0"
     inkscape:document-units="mm"
     showgrid="false"
     fit-margin-top="0"
     fit-margin-left="0"
     fit-margin-right="0"
     fit-margin-bottom="0"
     inkscape:zoom="1.4627806"
     inkscape:cx="139.46042"
     inkscape:cy="194.83441"
     inkscape:window-width="1920"
     inkscape:window-height="1007"
     inkscape:window-x="0"
     inkscape:window-y="0"
     inkscape:window-maximized="1"
     inkscape:current-layer="layer1" />
  <defs
     id="defs2" />
  <g
     inkscape:label="Layer 1"
     inkscape:groupmode="layer"
     id="layer1"
     transform="translate(-41.958679,-38.96868)">
    <path
       id="path1411"
       style="color:#000000;fill:#000000;fill-opacity:1;fill-rule:evenodd;stroke:none;stroke-width:0.167572;stroke-linecap:round;stroke-linejoin:round;stroke-opacity:1;-inkscape-stroke:none"
       d="m 56.240294,38.96868 c -1.462446,0 -2.651716,1.18927 -2.651716,2.651716 0,0.100624 0.0058,0.199888 0.0168,0.297628 l -7.243683,3.29581 c -0.467423,-0.411933 -1.080571,-0.662193 -1.7513,-0.662193 -1.462446,0 -2.651716,1.189271 -2.651716,2.651717 0,1.462446 1.18927,2.651716 2.651716,2.651716 0.577406,0 1.112123,-0.185522 1.547975,-0.499913 l 7.163409,4.017581 c -0.03668,0.175489 -0.05603,0.357314 -0.05603,0.543558 0,1.462446 1.189184,2.651629 2.65163,2.651629 1.462446,0 2.651716,-1.189183 2.651716,-2.651629 0,-1.462447 -1.18927,-2.651717 -2.651716,-2.651717 -0.672357,0 -1.286829,0.251504 -1.754677,0.665224 l -7.020528,-3.937221 c 0.07788,-0.249396 0.119934,-0.514472 0.119934,-0.789228 0,-0.184774 -0.01904,-0.365197 -0.05516,-0.539401 l 7.100022,-3.230605 c 0.484058,0.515906 1.171529,0.83876 1.933323,0.83876 1.462447,0 2.651717,-1.18927 2.651717,-2.651716 0,-1.462446 -1.18927,-2.651716 -2.651716,-2.651716 z" />
  </g>
</svg>
