<?xml version="1.0" encoding="UTF-8" standalone="no"?>
<!-- Created with Inkscape (http://www.inkscape.org/) -->

<svg
   width="101.0512mm"
   height="105.02512mm"
   viewBox="0 0 101.0512 105.02512"
   version="1.1"
   id="svg5"
   inkscape:version="1.1.2 (0a00cf5339, 2022-02-04)"
   sodipodi:docname="teilen.svg"
   xmlns:inkscape="http://www.inkscape.org/namespaces/inkscape"
   xmlns:sodipodi="http://sodipodi.sourceforge.net/DTD/sodipodi-0.dtd"
   xmlns="http://www.w3.org/2000/svg"
   xmlns:svg="http://www.w3.org/2000/svg">
  <sodipodi:namedview
     id="namedview7"
     pagecolor="#ffffff"
     bordercolor="#666666"
     borderopacity="1.0"
     inkscape:pageshadow="2"
     inkscape:pageopacity="0.0"
     inkscape:pagecheckerboard="0"
     inkscape:document-units="mm"
     showgrid="false"
     fit-margin-top="0"
     fit-margin-left="0"
     fit-margin-right="0"
     fit-margin-bottom="0"
     inkscape:zoom="1.4627806"
     inkscape:cx="152.44938"
     inkscape:cy="194.83442"
     inkscape:window-width="1920"
     inkscape:window-height="1007"
     inkscape:window-x="0"
     inkscape:window-y="0"
     inkscape:window-maximized="1"
     inkscape:current-layer="layer1" />
  <defs
     id="defs2" />
  <g
     inkscape:label="Layer 1"
     inkscape:groupmode="layer"
     id="layer1"
     transform="translate(-41.958678,-38.96868)">
    <path
       id="path1411"
       style="color:#000000;fill:#000000;fill-opacity:1;fill-rule:evenodd;stroke:none;stroke-width:3.77953;stroke-linecap:round;stroke-linejoin:round;stroke-opacity:1;-inkscape-stroke:none"
       d="m 480.70117,147.2832 c -32.98499,0 -59.80859,26.8236 -59.80859,59.8086 0,2.26955 0.13166,4.5084 0.3789,6.71289 l -163.3789,74.33593 c -10.54258,-9.29101 -24.37194,-14.93554 -39.5,-14.93554 -32.985,0 -59.8086,26.8236 -59.8086,59.80859 0,32.98499 26.8236,59.8086 59.8086,59.8086 13.02321,0 25.08357,-4.1844 34.91406,-11.27539 L 414.875,472.16211 c -0.82737,3.95811 -1.26367,8.05911 -1.26367,12.25977 0,32.98499 26.82164,59.80664 59.80664,59.80664 32.98499,0 59.80859,-26.82165 59.80859,-59.80664 0,-32.985 -26.8236,-59.8086 -59.80859,-59.8086 -15.16479,0 -29.02402,5.67258 -39.57617,15.00391 L 275.49609,350.81445 c 1.75653,-5.62504 2.70508,-11.60374 2.70508,-17.80078 0,-4.16752 -0.42944,-8.23689 -1.24414,-12.16601 L 437.0957,247.98242 c 10.91776,11.63609 26.42346,18.91797 43.60547,18.91797 32.985,0 59.8086,-26.8236 59.8086,-59.80859 0,-32.985 -26.8236,-59.8086 -59.8086,-59.8086 z"
       transform="scale(0.26458333)" />
  </g>
</svg>
